<mxfile host="app.diagrams.net" modified="2020-08-17T05:14:16.771Z" agent="5.0 (X11)" etag="-MA0ZQ_MeAzsewS4-dg6" version="13.6.2" type="github" pages="2">
  <diagram name="Page-1" id="9f46799a-70d6-7492-0946-bef42562c5a5">
    <mxGraphModel dx="1350" dy="767" grid="1" gridSize="10" guides="1" tooltips="1" connect="1" arrows="1" fold="1" page="1" pageScale="1" pageWidth="1100" pageHeight="850" background="#ffffff" math="0" shadow="0">
      <root>
        <mxCell id="0" />
        <mxCell id="1" parent="0" />
        <mxCell id="Pz5uD54sgJ8zFwolIMYW-2" value="expense_report" style="rounded=0;whiteSpace=wrap;html=1;" parent="1" vertex="1">
          <mxGeometry x="200" y="410" width="120" height="30" as="geometry" />
        </mxCell>
        <mxCell id="Pz5uD54sgJ8zFwolIMYW-3" value="expense_report_info" style="rounded=0;whiteSpace=wrap;html=1;" parent="1" vertex="1">
          <mxGeometry x="680" y="410" width="120" height="30" as="geometry" />
        </mxCell>
        <mxCell id="Pz5uD54sgJ8zFwolIMYW-4" value="expense_report_id" style="ellipse;whiteSpace=wrap;html=1;" parent="1" vertex="1">
          <mxGeometry y="370" width="120" height="30" as="geometry" />
        </mxCell>
        <mxCell id="Pz5uD54sgJ8zFwolIMYW-5" value="default_business_unit" style="ellipse;whiteSpace=wrap;html=1;" parent="1" vertex="1">
          <mxGeometry y="420" width="120" height="30" as="geometry" />
        </mxCell>
        <mxCell id="Pz5uD54sgJ8zFwolIMYW-6" value="expense_report_title" style="ellipse;whiteSpace=wrap;html=1;" parent="1" vertex="1">
          <mxGeometry y="470" width="120" height="30" as="geometry" />
        </mxCell>
        <mxCell id="Pz5uD54sgJ8zFwolIMYW-7" value="user_id" style="ellipse;whiteSpace=wrap;html=1;" parent="1" vertex="1">
          <mxGeometry y="330" width="120" height="30" as="geometry" />
        </mxCell>
        <mxCell id="Pz5uD54sgJ8zFwolIMYW-8" value="" style="endArrow=none;html=1;exitX=1;exitY=0.5;exitDx=0;exitDy=0;entryX=0;entryY=0;entryDx=0;entryDy=0;" parent="1" source="Pz5uD54sgJ8zFwolIMYW-7" target="Pz5uD54sgJ8zFwolIMYW-2" edge="1">
          <mxGeometry width="50" height="50" relative="1" as="geometry">
            <mxPoint x="420" y="450" as="sourcePoint" />
            <mxPoint x="470" y="400" as="targetPoint" />
          </mxGeometry>
        </mxCell>
        <mxCell id="Pz5uD54sgJ8zFwolIMYW-9" value="" style="endArrow=none;html=1;exitX=1;exitY=0.5;exitDx=0;exitDy=0;entryX=0;entryY=0.25;entryDx=0;entryDy=0;" parent="1" source="Pz5uD54sgJ8zFwolIMYW-4" target="Pz5uD54sgJ8zFwolIMYW-2" edge="1">
          <mxGeometry width="50" height="50" relative="1" as="geometry">
            <mxPoint x="420" y="450" as="sourcePoint" />
            <mxPoint x="470" y="400" as="targetPoint" />
          </mxGeometry>
        </mxCell>
        <mxCell id="Pz5uD54sgJ8zFwolIMYW-10" value="" style="endArrow=none;html=1;exitX=1;exitY=0.5;exitDx=0;exitDy=0;entryX=0;entryY=0.5;entryDx=0;entryDy=0;" parent="1" source="Pz5uD54sgJ8zFwolIMYW-5" target="Pz5uD54sgJ8zFwolIMYW-2" edge="1">
          <mxGeometry width="50" height="50" relative="1" as="geometry">
            <mxPoint x="420" y="450" as="sourcePoint" />
            <mxPoint x="470" y="400" as="targetPoint" />
          </mxGeometry>
        </mxCell>
        <mxCell id="Pz5uD54sgJ8zFwolIMYW-11" value="" style="endArrow=none;html=1;exitX=1.011;exitY=0.367;exitDx=0;exitDy=0;exitPerimeter=0;entryX=0;entryY=0.75;entryDx=0;entryDy=0;" parent="1" source="Pz5uD54sgJ8zFwolIMYW-6" target="Pz5uD54sgJ8zFwolIMYW-2" edge="1">
          <mxGeometry width="50" height="50" relative="1" as="geometry">
            <mxPoint x="420" y="450" as="sourcePoint" />
            <mxPoint x="470" y="400" as="targetPoint" />
          </mxGeometry>
        </mxCell>
        <mxCell id="R_qh4plyOd-E84ih__JZ-1" value="id" style="ellipse;whiteSpace=wrap;html=1;" vertex="1" parent="1">
          <mxGeometry x="920" y="410" width="120" height="30" as="geometry" />
        </mxCell>
        <mxCell id="R_qh4plyOd-E84ih__JZ-2" value="receipt_date" style="ellipse;whiteSpace=wrap;html=1;" vertex="1" parent="1">
          <mxGeometry x="920" y="290" width="120" height="30" as="geometry" />
        </mxCell>
        <mxCell id="R_qh4plyOd-E84ih__JZ-3" value="business_purpose" style="ellipse;whiteSpace=wrap;html=1;" vertex="1" parent="1">
          <mxGeometry x="920" y="370" width="120" height="30" as="geometry" />
        </mxCell>
        <mxCell id="R_qh4plyOd-E84ih__JZ-5" value="amount" style="ellipse;whiteSpace=wrap;html=1;" vertex="1" parent="1">
          <mxGeometry x="920" y="210" width="120" height="30" as="geometry" />
        </mxCell>
        <mxCell id="R_qh4plyOd-E84ih__JZ-7" value="category" style="ellipse;whiteSpace=wrap;html=1;" vertex="1" parent="1">
          <mxGeometry x="920" y="250" width="120" height="30" as="geometry" />
        </mxCell>
        <mxCell id="R_qh4plyOd-E84ih__JZ-8" value="vendor" style="ellipse;whiteSpace=wrap;html=1;" vertex="1" parent="1">
          <mxGeometry x="920" y="610" width="120" height="30" as="geometry" />
        </mxCell>
        <mxCell id="R_qh4plyOd-E84ih__JZ-9" value="attachments" style="ellipse;whiteSpace=wrap;html=1;" vertex="1" parent="1">
          <mxGeometry x="920" y="330" width="120" height="30" as="geometry" />
        </mxCell>
        <mxCell id="R_qh4plyOd-E84ih__JZ-10" value="receipt_number" style="ellipse;whiteSpace=wrap;html=1;" vertex="1" parent="1">
          <mxGeometry x="920" y="450" width="120" height="30" as="geometry" />
        </mxCell>
        <mxCell id="R_qh4plyOd-E84ih__JZ-11" value="currency" style="ellipse;whiteSpace=wrap;html=1;" vertex="1" parent="1">
          <mxGeometry x="920" y="530" width="120" height="30" as="geometry" />
        </mxCell>
        <mxCell id="R_qh4plyOd-E84ih__JZ-12" value="file_path" style="ellipse;whiteSpace=wrap;html=1;" vertex="1" parent="1">
          <mxGeometry x="920" y="570" width="120" height="30" as="geometry" />
        </mxCell>
        <mxCell id="R_qh4plyOd-E84ih__JZ-13" value="expense_report_id" style="ellipse;whiteSpace=wrap;html=1;" vertex="1" parent="1">
          <mxGeometry x="920" y="490" width="120" height="30" as="geometry" />
        </mxCell>
        <mxCell id="R_qh4plyOd-E84ih__JZ-16" value="" style="endArrow=none;html=1;entryX=0;entryY=0.5;entryDx=0;entryDy=0;exitX=1;exitY=0.25;exitDx=0;exitDy=0;" edge="1" parent="1" source="Pz5uD54sgJ8zFwolIMYW-3" target="R_qh4plyOd-E84ih__JZ-2">
          <mxGeometry width="50" height="50" relative="1" as="geometry">
            <mxPoint x="660" y="420" as="sourcePoint" />
            <mxPoint x="710" y="370" as="targetPoint" />
          </mxGeometry>
        </mxCell>
        <mxCell id="R_qh4plyOd-E84ih__JZ-17" value="" style="endArrow=none;html=1;entryX=0;entryY=0.5;entryDx=0;entryDy=0;exitX=1;exitY=0;exitDx=0;exitDy=0;" edge="1" parent="1" source="Pz5uD54sgJ8zFwolIMYW-3" target="R_qh4plyOd-E84ih__JZ-7">
          <mxGeometry width="50" height="50" relative="1" as="geometry">
            <mxPoint x="660" y="420" as="sourcePoint" />
            <mxPoint x="710" y="370" as="targetPoint" />
          </mxGeometry>
        </mxCell>
        <mxCell id="R_qh4plyOd-E84ih__JZ-18" value="" style="endArrow=none;html=1;entryX=0;entryY=0.5;entryDx=0;entryDy=0;" edge="1" parent="1" target="R_qh4plyOd-E84ih__JZ-5">
          <mxGeometry width="50" height="50" relative="1" as="geometry">
            <mxPoint x="800" y="410" as="sourcePoint" />
            <mxPoint x="910" y="230" as="targetPoint" />
            <Array as="points" />
          </mxGeometry>
        </mxCell>
        <mxCell id="R_qh4plyOd-E84ih__JZ-19" value="" style="endArrow=none;html=1;entryX=0;entryY=0.5;entryDx=0;entryDy=0;exitX=1;exitY=0.5;exitDx=0;exitDy=0;" edge="1" parent="1" source="Pz5uD54sgJ8zFwolIMYW-3" target="R_qh4plyOd-E84ih__JZ-9">
          <mxGeometry width="50" height="50" relative="1" as="geometry">
            <mxPoint x="660" y="420" as="sourcePoint" />
            <mxPoint x="710" y="370" as="targetPoint" />
          </mxGeometry>
        </mxCell>
        <mxCell id="R_qh4plyOd-E84ih__JZ-20" value="" style="endArrow=none;html=1;entryX=0;entryY=0.5;entryDx=0;entryDy=0;exitX=1;exitY=0.5;exitDx=0;exitDy=0;" edge="1" parent="1" source="Pz5uD54sgJ8zFwolIMYW-3" target="R_qh4plyOd-E84ih__JZ-3">
          <mxGeometry width="50" height="50" relative="1" as="geometry">
            <mxPoint x="660" y="420" as="sourcePoint" />
            <mxPoint x="710" y="370" as="targetPoint" />
          </mxGeometry>
        </mxCell>
        <mxCell id="R_qh4plyOd-E84ih__JZ-21" value="" style="endArrow=none;html=1;entryX=0;entryY=0.5;entryDx=0;entryDy=0;exitX=1;exitY=0.5;exitDx=0;exitDy=0;" edge="1" parent="1" source="Pz5uD54sgJ8zFwolIMYW-3" target="R_qh4plyOd-E84ih__JZ-1">
          <mxGeometry width="50" height="50" relative="1" as="geometry">
            <mxPoint x="660" y="420" as="sourcePoint" />
            <mxPoint x="710" y="370" as="targetPoint" />
          </mxGeometry>
        </mxCell>
        <mxCell id="R_qh4plyOd-E84ih__JZ-22" value="" style="endArrow=none;html=1;entryX=0;entryY=0.5;entryDx=0;entryDy=0;exitX=1;exitY=0.75;exitDx=0;exitDy=0;" edge="1" parent="1" source="Pz5uD54sgJ8zFwolIMYW-3" target="R_qh4plyOd-E84ih__JZ-10">
          <mxGeometry width="50" height="50" relative="1" as="geometry">
            <mxPoint x="660" y="420" as="sourcePoint" />
            <mxPoint x="710" y="370" as="targetPoint" />
          </mxGeometry>
        </mxCell>
        <mxCell id="R_qh4plyOd-E84ih__JZ-23" value="" style="endArrow=none;html=1;entryX=0;entryY=0.5;entryDx=0;entryDy=0;exitX=1;exitY=0.75;exitDx=0;exitDy=0;" edge="1" parent="1" source="Pz5uD54sgJ8zFwolIMYW-3" target="R_qh4plyOd-E84ih__JZ-13">
          <mxGeometry width="50" height="50" relative="1" as="geometry">
            <mxPoint x="660" y="420" as="sourcePoint" />
            <mxPoint x="710" y="370" as="targetPoint" />
          </mxGeometry>
        </mxCell>
        <mxCell id="R_qh4plyOd-E84ih__JZ-24" value="" style="endArrow=none;html=1;entryX=0;entryY=0.5;entryDx=0;entryDy=0;exitX=1;exitY=1;exitDx=0;exitDy=0;" edge="1" parent="1" source="Pz5uD54sgJ8zFwolIMYW-3" target="R_qh4plyOd-E84ih__JZ-11">
          <mxGeometry width="50" height="50" relative="1" as="geometry">
            <mxPoint x="660" y="420" as="sourcePoint" />
            <mxPoint x="710" y="370" as="targetPoint" />
          </mxGeometry>
        </mxCell>
        <mxCell id="R_qh4plyOd-E84ih__JZ-25" value="" style="endArrow=none;html=1;entryX=0;entryY=0.5;entryDx=0;entryDy=0;exitX=1;exitY=1;exitDx=0;exitDy=0;" edge="1" parent="1" source="Pz5uD54sgJ8zFwolIMYW-3" target="R_qh4plyOd-E84ih__JZ-12">
          <mxGeometry width="50" height="50" relative="1" as="geometry">
            <mxPoint x="660" y="420" as="sourcePoint" />
            <mxPoint x="710" y="370" as="targetPoint" />
          </mxGeometry>
        </mxCell>
        <mxCell id="R_qh4plyOd-E84ih__JZ-26" value="" style="endArrow=none;html=1;entryX=0;entryY=0.5;entryDx=0;entryDy=0;" edge="1" parent="1" target="R_qh4plyOd-E84ih__JZ-8">
          <mxGeometry width="50" height="50" relative="1" as="geometry">
            <mxPoint x="800" y="440" as="sourcePoint" />
            <mxPoint x="710" y="370" as="targetPoint" />
          </mxGeometry>
        </mxCell>
      </root>
    </mxGraphModel>
  </diagram>
  <diagram id="1mUVMJp82mPoYoTg56Co" name="Page-2">
    
    <mxGraphModel dx="1350" dy="767" grid="1" gridSize="10" guides="1" tooltips="1" connect="1" arrows="1" fold="1" page="1" pageScale="1" pageWidth="850" pageHeight="1100" math="0" shadow="0">
      
      <root>
        
        <mxCell id="skq63WqZFMRU0TyStAmw-0" />
        
        <mxCell id="skq63WqZFMRU0TyStAmw-1" parent="skq63WqZFMRU0TyStAmw-0" />
        
      </root>
      
    </mxGraphModel>
    
  </diagram>
</mxfile>
